<svg width="32" height="32" viewBox="0 0 32 32" fill="none" xmlns="http://www.w3.org/2000/svg">
  <!-- Fond circulaire -->
  <circle cx="16" cy="16" r="16" fill="url(#gradient)" />
  
  <!-- Définition du gradient -->
  <defs>
    <linearGradient id="gradient" x1="0%" y1="0%" x2="100%" y2="100%">
      <stop offset="0%" style="stop-color:#7765e3;stop-opacity:1" />
      <stop offset="100%" style="stop-color:#3db4f2;stop-opacity:1" />
    </linearGradient>
  </defs>
  
  <!-- Silhouette utilisateur -->
  <path d="M16 8C13.79 8 12 9.79 12 12C12 14.21 13.79 16 16 16C18.21 16 20 14.21 20 12C20 9.79 18.21 8 16 8Z" fill="white" opacity="0.9"/>
  <path d="M16 18C12.69 18 10 20.69 10 24V26H22V24C22 20.69 19.31 18 16 18Z" fill="white" opacity="0.9"/>
  
  <!-- Étoile décorative (thème Star Wars) -->
  <path d="M24 8L25.5 10.5L28 8L25.5 5.5L24 8Z" fill="#f8d76b" opacity="0.8"/>
  <path d="M6 24L7.5 26.5L10 24L7.5 21.5L6 24Z" fill="#f8d76b" opacity="0.6"/>
</svg> 