<svg viewBox="0 0 100 100" fill="none" xmlns="http://www.w3.org/2000/svg">
  <defs>
    <linearGradient id="m-grad" x1="0" y1="0" x2="0" y2="1">
      <stop offset="0%" stop-color="#c4b5fd"/>
      <stop offset="100%" stop-color="#7c3aed"/>
    </linearGradient>
    <radialGradient id="m-glow" cx="0.5" cy="0.5" r="0.5">
      <stop offset="0%" stop-color="#fbbf24" stop-opacity="0.9"/>
      <stop offset="100%" stop-color="#fbbf24" stop-opacity="0"/>
    </radialGradient>
    <filter id="m-glow-blur" x="-50%" y="-50%" width="200%" height="200%">
      <feGaussianBlur stdDeviation="3" result="blur"/>
      <feComposite in="SourceGraphic" in2="blur" operator="over"/>
    </filter>
    <filter id="m-shadow" x="-20%" y="-20%" width="140%" height="140%">
      <feDropShadow dx="0" dy="2" stdDeviation="3" flood-color="#7c3aed" flood-opacity="0.5"/>
    </filter>
  </defs>
  <rect width="100" height="100" rx="22" fill="#0d0d1a"/>
  <ellipse cx="50" cy="58" rx="34" ry="28" fill="#8b5cf6" opacity="0.08"/>
  <circle cx="50" cy="20" r="12" fill="url(#m-glow)" filter="url(#m-glow-blur)"/>
  <circle cx="50" cy="20" r="4" fill="#fde68a"/>
  <line x1="20" y1="35" x2="12" y2="52" stroke="#8b5cf6" stroke-width="1" stroke-dasharray="2 2" opacity="0.5"/>
  <line x1="80" y1="35" x2="88" y2="52" stroke="#8b5cf6" stroke-width="1" stroke-dasharray="2 2" opacity="0.5"/>
  <circle cx="12" cy="52" r="2" fill="#8b5cf6" opacity="0.6"/>
  <circle cx="88" cy="52" r="2" fill="#8b5cf6" opacity="0.6"/>
  <path d="M 13 88 L 30 26 L 50 74 L 70 26 L 87 88" stroke="url(#m-grad)" stroke-width="14" stroke-linecap="round" stroke-linejoin="round" filter="url(#m-shadow)"/>
  <path d="M 13 88 L 30 26 L 50 74 L 70 26 L 87 88" stroke="rgba(255,255,255,0.35)" stroke-width="2" stroke-linecap="round" stroke-linejoin="round" fill="none"/>
</svg>
